<svg width="160" height="120" viewBox="0 0 160 120" fill="none" xmlns="http://www.w3.org/2000/svg">
<path fill-rule="evenodd" clip-rule="evenodd" d="M5.46807 67.0546C-0.424282 65.889 -0.823274 63.1029 0.874347 58.1986C1.75836 55.736 2.42137 51.9474 2.86338 46.8327C3.30539 41.6865 3.52639 37.1086 3.52639 33.0989L3.66847 29.8786C3.76318 27.7317 3.81054 26.3267 3.81054 25.6637L3.8579 24.6218V18.4653C3.8579 12.7192 3.70004 9.04108 3.38432 7.43091C3.10017 5.82073 2.9581 4.81043 2.9581 4.4C2.9581 3.07397 4.37884 2.20574 7.22031 1.79531C11.3247 1.19544 17.0076 0.895508 24.2692 0.895508C35.1931 0.895508 42.2179 4.22635 45.3435 10.888C46.5116 13.3507 47.0957 15.8448 47.0957 18.3706V19.5545C47.0957 25.5848 45.0751 30.5258 41.0339 34.3776C39.1712 36.1772 37.1663 37.5506 35.0194 38.4977C31.0416 40.2195 22.9701 41.6446 22.4453 36.7127C22.2556 34.9302 23.3274 32.8883 23.5899 32.2676C23.7557 31.8754 23.9972 31.5153 24.5478 30.5963C26.2581 27.7415 27.5859 27.5565 29.9108 27.2326C30.8777 27.0978 32.0172 26.9391 33.4284 26.5542C37.2718 25.506 38.6208 21.3617 38.815 19.4206C39.2234 17.8889 37.7339 17.7897 35.8786 17.666C35.0888 17.6134 34.2326 17.5563 33.4284 17.3824C32.0366 17.0815 31.1697 15.9617 30.3612 14.9174C29.8052 14.1991 29.2767 13.5165 28.6241 13.1605C27.343 12.4617 25.3728 12.1414 24.5478 12.0686C23.4302 11.8637 20.9829 12.1793 18.4571 14.4181C16.5371 13.5909 14.1963 14.0198 13.1093 17.3482C11.6872 21.7028 11.0086 27.0537 13.4848 25.8683C13.5092 27.6435 13.7699 29.5293 14.1542 31.6157C14.2359 32.0595 14.3505 32.5978 14.4833 33.2222C15.0713 35.9851 15.9003 40.8899 16.0723 45.8619C16.2579 51.2234 15.2077 59.572 15.2077 59.572C15.2077 59.572 14.507 63.2988 12.8872 64.8761C10.7493 66.9578 8.43033 67.6406 5.46807 67.0546Z" fill="white"/>
<path d="M29.222 63.9858H29.7707C30.9243 63.9858 31.9373 63.5989 32.8096 62.8251C33.6959 62.0372 34.1391 61.1298 34.1391 60.1027L34.1813 59.8284V59.554L34.2235 58.8998V57.6969C34.2235 56.8809 33.8085 56.4729 32.9784 56.4729H32.0288L31.881 56.4941L31.058 56.5574C30.6641 56.6136 30.3827 56.6418 30.2139 56.6418C29.0743 56.6418 28.0191 57.0709 27.0484 57.9291C26.3731 58.534 26.0354 59.3922 26.0354 60.5037V60.9258C26.0354 61.8684 26.3379 62.614 26.9428 63.1627C27.5619 63.7114 28.3216 63.9858 29.222 63.9858ZM24.516 50.5007C23.5733 50.5007 23.102 49.8957 23.102 48.6858C23.102 47.7854 23.8618 47.0046 25.3812 46.3433C26.9147 45.668 28.5045 45.3304 30.1506 45.3304H31.2057C32.6267 45.3304 33.8788 45.5977 34.9621 46.1323C36.0454 46.6528 36.8685 47.3633 37.4312 48.2637C38.008 49.1641 38.3598 50.3389 38.4864 51.788C38.5145 52.1257 38.5286 53.7647 38.5286 56.7051C38.5286 59.6455 38.5638 61.3408 38.6341 61.791C38.7185 62.2271 38.9436 62.7618 39.3094 63.3949C39.6893 64.028 39.8792 64.5485 39.8792 64.9565C39.8792 65.3645 39.6822 65.7162 39.2883 66.0117C38.9085 66.2931 38.3527 66.4337 37.6212 66.4337C36.8896 66.4337 36.0947 66.2579 35.2365 65.9062C34.3783 65.5404 33.7522 65.3575 33.3583 65.3575C33.3161 65.3575 32.6126 65.6107 31.2479 66.1172C29.8832 66.6096 28.7296 66.8558 27.787 66.8558H27.3227C25.747 66.8558 24.4034 66.3564 23.292 65.3575C22.1946 64.3586 21.6459 62.9376 21.6459 61.0946C21.6459 59.2516 22.2509 57.8165 23.4608 56.7895C24.6707 55.7484 26.1409 55.0379 27.8714 54.6581C28.3919 54.5455 29.2572 54.3978 30.4671 54.2149C31.677 54.032 32.5001 53.8421 32.9362 53.6451C33.6959 53.2934 34.0758 52.6321 34.0758 51.6614C34.0758 50.6766 33.7522 49.9098 33.105 49.3611C32.4579 48.7984 31.6841 48.517 30.7837 48.517C29.8973 48.517 28.7296 48.8476 27.2805 49.5088C25.8314 50.1701 24.9099 50.5007 24.516 50.5007ZM55.749 64.3867C55.749 64.9495 55.4043 65.456 54.7149 65.9062C54.0396 66.3423 53.1181 66.5604 51.9503 66.5604C49.7697 66.5604 48.2362 65.7514 47.3498 64.1335C46.8011 63.1205 46.5268 60.7499 46.5268 57.0216C46.5268 53.2934 46.4635 51.1268 46.3368 50.5218C46.2102 49.9168 45.8585 49.3259 45.2817 48.7491C44.7049 48.1723 44.4164 47.7291 44.4164 47.4196C44.4164 47.307 45.0988 46.5684 46.4635 45.2037C46.7589 44.9083 47.0544 44.2541 47.3498 43.2411C47.6593 42.2282 47.8774 41.5599 48.004 41.2363C48.4261 40.2234 48.9818 39.7169 49.6712 39.7169H50.0088C50.6138 39.7169 51.0429 39.949 51.2961 40.4133C51.3946 40.5962 51.5423 41.2574 51.7393 42.397C51.9503 43.5225 52.1895 44.2471 52.4568 44.5706C52.7241 44.8942 53.3924 45.253 54.4616 45.6469C55.545 46.0268 56.0866 46.4348 56.0866 46.8709V47.1031C56.0866 47.6658 55.4676 48.1442 54.2295 48.5381C53.0055 48.9179 52.2177 49.5299 51.8659 50.3741C51.1766 52.0764 50.8319 54.848 50.8319 58.6888C50.8319 60.4896 51.1414 61.7136 51.7604 62.3608C52.1403 62.7547 52.9 63.0291 54.0396 63.1838C55.1792 63.3386 55.749 63.7395 55.749 64.3867ZM67.4613 39.2104V39.4636C67.4613 40.1811 67.2503 40.7931 66.8282 41.2996C66.4202 41.792 65.7871 42.0382 64.9289 42.0382H64.5913L63.9371 41.9538C63.5572 41.9538 63.1914 41.778 62.8397 41.4262C62.488 41.0745 62.3121 40.5469 62.3121 39.8435V39.5902L62.4176 38.8305C62.4176 38.5351 62.5935 38.1693 62.9452 37.7332C63.311 37.297 63.7753 37.0789 64.338 37.0789L64.8234 37.0156H65.2455L65.8364 37.1001C66.2022 37.1001 66.5609 37.2829 66.9126 37.6487C67.2784 38.0005 67.4613 38.521 67.4613 39.2104ZM66.4695 48.116L66.2373 53.7928L66.1951 54.3626L66.1318 56.0931V56.9161C66.1318 58.942 66.1881 60.2716 66.3006 60.9047C66.4273 61.5378 66.6594 62.1568 66.997 62.7618C67.3347 63.3526 67.5035 63.7818 67.5035 64.0491V64.239C67.5035 64.9284 67.1518 65.4771 66.4484 65.8851C65.7449 66.2931 64.7882 66.4971 63.5783 66.4971H63.0507C62.3473 66.4971 61.8127 66.3423 61.4469 66.0328C61.0811 65.7092 60.8982 65.3645 60.8982 64.9987V64.5344C60.8982 64.3515 61.06 63.7044 61.3836 62.5929C61.7071 61.4674 61.8689 59.9409 61.8689 58.0135C61.9111 57.4648 61.9322 57.0849 61.9322 56.8739L61.9955 55.7132L62.0378 55.1434C62.1081 54.1586 62.1433 53.3919 62.1433 52.8432L62.1644 51.999C62.1644 50.9439 61.9885 50.0083 61.6368 49.1923C61.2991 48.3763 61.1303 47.8698 61.1303 47.6728C61.1303 46.6599 62.087 46.1534 64.0004 46.1534H64.7601C65.4776 46.1534 65.9419 46.3433 66.1529 46.7232C66.3639 47.089 66.4695 47.5533 66.4695 48.116ZM92.0679 64.1124C92.0679 65.1535 91.1604 65.674 89.3455 65.674C88.3185 65.674 87.6291 65.4278 87.2774 64.9354C87.1086 64.6962 87.0242 64.1335 87.0242 63.2471L86.9608 61.8965C86.8624 60.4193 86.8131 58.935 86.8131 57.4437C86.8131 54.2219 86.5317 52.0623 85.969 50.965C85.4203 49.8535 84.4917 49.2978 83.1833 49.2978C82.3111 49.2978 81.5021 49.5581 80.7564 50.0786C80.0249 50.5992 79.4621 51.3237 79.0682 52.2523C78.2522 54.1516 77.8442 57.6618 77.8442 62.7829C77.8442 63.9506 77.6191 64.7736 77.1689 65.252C76.7327 65.7303 76.17 65.9695 75.4806 65.9695H75.0585C73.4828 65.9695 72.695 65.3434 72.695 64.0913V63.5848C72.695 63.43 72.7794 63.0924 72.9482 62.5718L73.2859 61.6011C73.6235 60.4615 73.7923 58.0205 73.7923 54.2782L73.8979 48.0105C73.8979 47.2086 74.334 46.8076 75.2063 46.8076C76.0785 46.8076 76.9367 47.096 77.7809 47.6728C78.6391 48.2497 79.1807 48.5381 79.4058 48.5381C79.645 48.5381 80.06 48.3763 80.6509 48.0527C82.6347 46.9694 84.2244 46.4277 85.4203 46.4277H85.969C88.1215 46.4277 89.6339 47.3985 90.5062 49.34C90.9283 50.2545 91.1393 52.2241 91.1393 55.249V55.3967C91.1393 55.6499 91.1323 55.9032 91.1182 56.1564C91.1182 56.8458 91.1182 57.2045 91.1182 57.2327C91.1182 57.5 91.1182 57.7603 91.1182 58.0135C91.1182 58.2105 91.1182 58.4004 91.1182 58.5833C91.1182 59.6666 91.1534 60.4052 91.2237 60.7991C91.3222 61.3338 91.484 61.8895 91.7091 62.4663C91.9483 63.0994 92.0679 63.6481 92.0679 64.1124ZM99.5385 66.2438C97.8783 66.2438 97.0483 65.6529 97.0483 64.4711C97.0483 63.9365 97.1749 63.1416 97.4281 62.0864C97.6954 61.0313 97.8713 60.0605 97.9557 59.1742C98.0401 58.2738 98.1878 55.3756 98.3989 50.4796C98.624 45.5836 98.7365 42.601 98.7365 41.5318V39.0416L98.6099 37.2689C98.6099 36.6076 99.2149 36.277 100.425 36.277C101.649 36.277 102.444 36.7483 102.809 37.6909C102.992 38.1693 103.084 39.7309 103.084 42.3759C103.084 45.0209 103.133 46.5262 103.232 46.892C103.344 47.2578 103.633 47.4407 104.097 47.4407C104.153 47.4407 104.42 47.3563 104.899 47.1875L105.363 47.0186C106.868 46.4277 108.17 46.1323 109.267 46.1323C111.574 46.1323 113.213 47.0327 114.184 48.8335C114.831 50.0294 115.155 52.6321 115.155 56.6418C115.155 58.527 115.169 59.6455 115.197 59.9972C115.225 60.3489 115.317 60.9891 115.471 61.9176C115.626 62.8321 115.704 63.3386 115.704 63.4371C115.704 64.2671 115.514 64.8862 115.134 65.2942C114.768 65.6881 114.1 65.8851 113.129 65.8851C112.172 65.8851 111.546 65.5896 111.251 64.9987C111.096 64.6892 111.019 63.7958 111.019 62.3186L110.955 58.6044L111.019 55.249C111.019 51.4926 109.921 49.6144 107.727 49.6144C105.785 49.6144 104.399 50.4303 103.569 52.0623C102.739 53.6943 102.324 56.7192 102.324 61.1368L102.387 63.4371C102.387 64.2249 102.141 64.8932 101.649 65.4419C101.156 65.9765 100.453 66.2438 99.5385 66.2438ZM127.817 63.9858H128.366C129.519 63.9858 130.532 63.5989 131.405 62.8251C132.291 62.0372 132.734 61.1298 132.734 60.1027L132.776 59.8284V59.554L132.818 58.8998V57.6969C132.818 56.8809 132.403 56.4729 131.573 56.4729H130.624L130.476 56.4941L129.653 56.5574C129.259 56.6136 128.978 56.6418 128.809 56.6418C127.669 56.6418 126.614 57.0709 125.643 57.9291C124.968 58.534 124.63 59.3922 124.63 60.5037V60.9258C124.63 61.8684 124.933 62.614 125.538 63.1627C126.157 63.7114 126.917 63.9858 127.817 63.9858ZM123.111 50.5007C122.168 50.5007 121.697 49.8957 121.697 48.6858C121.697 47.7854 122.457 47.0046 123.976 46.3433C125.51 45.668 127.099 45.3304 128.746 45.3304H129.801C131.222 45.3304 132.474 45.5977 133.557 46.1323C134.64 46.6528 135.463 47.3633 136.026 48.2637C136.603 49.1641 136.955 50.3389 137.081 51.788C137.109 52.1257 137.124 53.7647 137.124 56.7051C137.124 59.6455 137.159 61.3408 137.229 61.791C137.313 62.2271 137.539 62.7618 137.904 63.3949C138.284 64.028 138.474 64.5485 138.474 64.9565C138.474 65.3645 138.277 65.7162 137.883 66.0117C137.503 66.2931 136.948 66.4337 136.216 66.4337C135.485 66.4337 134.69 66.2579 133.831 65.9062C132.973 65.5404 132.347 65.3575 131.953 65.3575C131.911 65.3575 131.208 65.6107 129.843 66.1172C128.478 66.6096 127.325 66.8558 126.382 66.8558H125.918C124.342 66.8558 122.998 66.3564 121.887 65.3575C120.79 64.3586 120.241 62.9376 120.241 61.0946C120.241 59.2516 120.846 57.8165 122.056 56.7895C123.266 55.7484 124.736 55.0379 126.466 54.6581C126.987 54.5455 127.852 54.3978 129.062 54.2149C130.272 54.032 131.095 53.8421 131.531 53.6451C132.291 53.2934 132.671 52.6321 132.671 51.6614C132.671 50.6766 132.347 49.9098 131.7 49.3611C131.053 48.7984 130.279 48.517 129.379 48.517C128.492 48.517 127.325 48.8476 125.875 49.5088C124.426 50.1701 123.505 50.5007 123.111 50.5007ZM144.89 54.8691C144.031 53.9968 143.602 52.7728 143.602 51.1971C143.602 49.6214 144.306 48.2708 145.713 47.1453C147.12 46.0057 148.864 45.4359 150.946 45.4359H151.495C153.338 45.4359 154.801 45.6962 155.884 46.2167C156.982 46.7373 157.531 47.5181 157.531 48.5592C157.531 49.5862 157.073 50.0997 156.159 50.0997C155.92 50.0997 155.244 49.8184 154.133 49.2556C153.021 48.6788 151.973 48.3904 150.988 48.3904C150.004 48.3904 149.209 48.6155 148.604 49.0657C148.013 49.5018 147.717 50.1068 147.717 50.8806C147.717 51.6543 148.132 52.3297 148.963 52.9065C149.441 53.2441 150.566 53.7788 152.339 54.5103C154.126 55.2419 155.399 55.9454 156.159 56.6207C157.383 57.704 157.995 59.0898 157.995 60.778C157.995 62.4663 157.277 63.9154 155.842 65.1253C154.407 66.3212 152.543 66.9191 150.25 66.9191H149.701C147.394 66.9191 145.663 66.5885 144.51 65.9273C143.356 65.252 142.779 64.3797 142.779 63.3104C142.779 62.2271 143.229 61.6855 144.13 61.6855C144.425 61.6855 145.192 62.0653 146.43 62.8251C147.682 63.5848 148.906 63.9646 150.102 63.9646C151.312 63.9646 152.22 63.7114 152.824 63.2049C153.429 62.6844 153.732 62.0372 153.732 61.2634C153.732 60.4756 153.352 59.7862 152.592 59.1953C152.184 58.8717 151.017 58.2878 149.089 57.4437C147.162 56.5855 145.762 55.7273 144.89 54.8691Z" fill="white"/>
<path fill-rule="evenodd" clip-rule="evenodd" d="M12.1768 96.0702C12.1768 94.4135 12.2515 92.9749 12.6153 91.0348C14.1146 83.0391 18.3752 74.9403 27.2825 72.3554C29.3214 71.7637 30.841 71.5508 32.6589 71.5508H34.1359C36.9369 71.5508 39.4425 72.0869 41.6526 73.1592C45.9635 75.2599 48.9614 78.5532 50.6464 83.0391C51.8061 86.1246 52.386 89.1444 52.386 92.0985V94.2977C52.386 97.5582 51.8718 100.764 50.8433 103.915C48.8739 109.977 45.4055 114.244 40.4381 116.716C37.5496 118.161 34.6064 118.883 31.6085 118.883H30.1314C27.7025 118.883 25.3282 118.358 23.0086 117.307C18.3914 115.25 15.2622 111.705 13.621 106.672C12.6582 103.718 12.1768 100.677 12.1768 97.5473V96.0702ZM37.9353 107.589C35.381 109.806 23.0868 109.946 21.7414 99.482C21.4008 96.8328 22.1676 95.0784 24.0727 90.7194C24.3226 90.1475 24.5922 89.5307 24.8814 88.8613C24.8933 88.8249 24.9056 88.7876 24.9181 88.7494C25.5841 86.7177 27.0825 82.1463 29.0373 81.6576C29.972 81.424 30.5417 82.9421 31.1405 84.5376C31.6067 85.7797 32.0904 87.0687 32.7777 87.6145L33.4718 87.7175C36.1269 84.8786 37.7607 84.1592 38.8214 83.1107C39.2931 82.6444 39.5378 82.7828 39.4127 83.183C39.3845 83.2734 39.2619 83.4902 39.0913 83.7919C38.3174 85.1609 36.5552 88.2779 38.1308 89.2643C40.0537 90.468 40.6634 91.5936 40.7259 91.9219C40.7549 92.074 40.7369 92.3637 40.7185 92.6588C40.6973 93.0007 40.6756 93.3498 40.7259 93.5008C40.8197 93.7822 41.3153 94.9352 42.6603 96.253C42.8007 96.4477 43.0271 96.9676 42.8098 97.4893C42.6952 97.7643 42.5734 97.9571 42.4739 98.1147C42.3374 98.3308 42.2428 98.4806 42.2663 98.6849C42.2694 98.7118 42.2736 98.7424 42.2783 98.776C42.3247 99.1136 42.0146 99.9586 41.4104 100.179C41.193 100.668 40.6333 101.687 40.1333 101.85C39.6334 102.013 38.1679 101.792 37.4977 101.66C37.1354 101.524 36.692 101.63 36.1526 102.19C35.5495 102.817 34.3144 105.147 37.9353 107.589Z" fill="white"/>
<path d="M74.292 116.188C74.292 117.23 73.3846 117.75 71.5697 117.75C70.5427 117.75 69.8533 117.504 69.5016 117.011C69.3327 116.772 69.2483 116.21 69.2483 115.323L69.185 113.973C69.0865 112.495 69.0373 111.011 69.0373 109.52C69.0373 106.298 68.7559 104.138 68.1931 103.041C67.6445 101.93 66.7159 101.374 65.4075 101.374C64.5352 101.374 63.7263 101.634 62.9806 102.155C62.249 102.675 61.6863 103.4 61.2923 104.328C60.4763 106.228 60.0683 109.738 60.0683 114.859C60.0683 116.027 59.8432 116.85 59.393 117.328C58.9569 117.806 58.3941 118.046 57.7048 118.046H57.2827C55.707 118.046 54.9191 117.419 54.9191 116.167V115.661C54.9191 115.506 55.0035 115.168 55.1724 114.648L55.51 113.677C55.8477 112.538 56.0165 110.097 56.0165 106.354L56.122 100.087C56.122 99.2846 56.5582 98.8837 57.4304 98.8837C58.3027 98.8837 59.1609 99.1721 60.005 99.7489C60.8632 100.326 61.4049 100.614 61.63 100.614C61.8692 100.614 62.2842 100.452 62.8751 100.129C64.8588 99.0454 66.4486 98.5038 67.6445 98.5038H68.1931C70.3457 98.5038 71.8581 99.4745 72.7304 101.416C73.1524 102.331 73.3635 104.3 73.3635 107.325V107.473C73.3635 107.726 73.3564 107.979 73.3424 108.232C73.3424 108.922 73.3424 109.281 73.3424 109.309C73.3424 109.576 73.3424 109.836 73.3424 110.09C73.3424 110.287 73.3424 110.476 73.3424 110.659C73.3424 111.743 73.3775 112.481 73.4479 112.875C73.5464 113.41 73.7082 113.966 73.9333 114.542C74.1724 115.175 74.292 115.724 74.292 116.188ZM80.3698 89.3871C80.3698 88.3601 81.3335 87.8466 83.261 87.8466H83.6408C84.4427 87.8466 84.9914 88.0436 85.2869 88.4375C85.5823 88.8173 85.7301 89.563 85.7301 90.6744L85.5612 93.8188C85.519 94.3113 85.4979 94.5786 85.4979 94.6208L85.4557 95.4227C85.4276 95.9432 85.3994 96.4708 85.3713 97.0055L85.308 97.8074L85.2447 99.0103C85.0196 103.287 84.907 106.446 84.907 108.486C84.907 110.512 84.9985 111.968 85.1814 112.854C85.3643 113.74 85.6527 114.493 86.0466 115.112C86.4405 115.731 86.6375 116.139 86.6375 116.336V116.589C86.6375 117.208 86.328 117.701 85.7089 118.067C85.104 118.432 84.281 118.615 83.2399 118.615H82.1425C81.4953 118.615 80.9255 118.432 80.4331 118.067C79.9548 117.687 79.7156 117.258 79.7156 116.779V116.21L79.8422 115.323C80.011 114.099 80.1095 113.185 80.1377 112.58C80.1799 111.961 80.2432 111.11 80.3276 110.026C80.412 108.929 80.5457 106.6 80.7286 103.041C80.9255 99.4675 81.024 97.5471 81.024 97.2798L81.1084 95.697L81.1506 94.1354C81.1506 92.6441 81.017 91.5819 80.7497 90.9488C80.4964 90.3016 80.3698 89.7811 80.3698 89.3871ZM98.4765 91.2864V91.5397C98.4765 92.2572 98.2655 92.8692 97.8434 93.3757C97.4354 93.8681 96.8023 94.1143 95.9441 94.1143H95.6064L94.9522 94.0299C94.5724 94.0299 94.2066 93.854 93.8549 93.5023C93.5031 93.1506 93.3273 92.623 93.3273 91.9195V91.6663L93.4328 90.9066C93.4328 90.6111 93.6086 90.2453 93.9604 89.8092C94.3262 89.3731 94.7904 89.155 95.3532 89.155L95.8386 89.0917H96.2606L96.8515 89.1761C97.2173 89.1761 97.5761 89.359 97.9278 89.7248C98.2936 90.0765 98.4765 90.5971 98.4765 91.2864ZM97.4846 100.192L97.2525 105.869L97.2103 106.439L97.147 108.169V108.992C97.147 111.018 97.2033 112.348 97.3158 112.981C97.4424 113.614 97.6746 114.233 98.0122 114.838C98.3499 115.429 98.5187 115.858 98.5187 116.125V116.315C98.5187 117.004 98.167 117.553 97.4635 117.961C96.7601 118.369 95.8034 118.573 94.5935 118.573H94.0659C93.3624 118.573 92.8278 118.418 92.462 118.109C92.0962 117.785 91.9133 117.441 91.9133 117.075V116.61C91.9133 116.428 92.0751 115.78 92.3987 114.669C92.7223 113.543 92.8841 112.017 92.8841 110.09C92.9263 109.541 92.9474 109.161 92.9474 108.95L93.0107 107.789L93.0529 107.219C93.1233 106.235 93.1584 105.468 93.1584 104.919L93.1795 104.075C93.1795 103.02 93.0037 102.084 92.652 101.268C92.3143 100.452 92.1455 99.9459 92.1455 99.7489C92.1455 98.7359 93.1022 98.2294 95.0155 98.2294H95.7753C96.4928 98.2294 96.957 98.4194 97.1681 98.7992C97.3791 99.165 97.4846 99.6293 97.4846 100.192ZM123.083 116.188C123.083 117.23 122.176 117.75 120.361 117.75C119.334 117.75 118.644 117.504 118.293 117.011C118.124 116.772 118.039 116.21 118.039 115.323L117.976 113.973C117.878 112.495 117.828 111.011 117.828 109.52C117.828 106.298 117.547 104.138 116.984 103.041C116.435 101.93 115.507 101.374 114.199 101.374C113.326 101.374 112.517 101.634 111.772 102.155C111.04 102.675 110.477 103.4 110.083 104.328C109.267 106.228 108.859 109.738 108.859 114.859C108.859 116.027 108.634 116.85 108.184 117.328C107.748 117.806 107.185 118.046 106.496 118.046H106.074C104.498 118.046 103.71 117.419 103.71 116.167V115.661C103.71 115.506 103.795 115.168 103.963 114.648L104.301 113.677C104.639 112.538 104.807 110.097 104.807 106.354L104.913 100.087C104.913 99.2846 105.349 98.8837 106.221 98.8837C107.094 98.8837 107.952 99.1721 108.796 99.7489C109.654 100.326 110.196 100.614 110.421 100.614C110.66 100.614 111.075 100.452 111.666 100.129C113.65 99.0454 115.24 98.5038 116.435 98.5038H116.984C119.137 98.5038 120.649 99.4745 121.521 101.416C121.943 102.331 122.154 104.3 122.154 107.325V107.473C122.154 107.726 122.147 107.979 122.133 108.232C122.133 108.922 122.133 109.281 122.133 109.309C122.133 109.576 122.133 109.836 122.133 110.09C122.133 110.287 122.133 110.476 122.133 110.659C122.133 111.743 122.169 112.481 122.239 112.875C122.337 113.41 122.499 113.966 122.724 114.542C122.963 115.175 123.083 115.724 123.083 116.188ZM131.841 105.89V106.228C131.841 106.65 132.228 106.861 133.002 106.861H133.508L133.635 106.84L134.669 106.755C135.752 106.6 136.456 106.523 136.779 106.523C138.313 106.523 139.466 106.235 140.24 105.658C140.606 105.376 140.789 104.877 140.789 104.159V103.927C140.789 102.872 140.437 102.035 139.734 101.416C139.044 100.797 138.214 100.488 137.243 100.488H137.096L136.969 100.509C135.604 100.509 134.409 101.085 133.381 102.239C132.354 103.393 131.841 104.61 131.841 105.89ZM136.441 118.995H135.977C133.29 118.995 131.152 118.144 129.562 116.442C127.972 114.725 127.177 112.439 127.177 109.583V108.655C127.177 107.29 127.444 105.904 127.979 104.497C129.062 101.683 130.828 99.7419 133.276 98.6726C134.57 98.0958 135.886 97.8074 137.222 97.8074H138.13C139.973 97.8074 141.527 98.4264 142.794 99.6645C144.074 100.888 144.714 102.471 144.714 104.413V104.835C144.714 106.214 144.165 107.191 143.068 107.768C142.308 108.176 140.536 108.584 137.75 108.992C134.964 109.4 133.445 109.646 133.192 109.731C132.347 110.026 131.925 110.589 131.925 111.419C131.925 112.573 132.418 113.558 133.403 114.374C134.387 115.19 135.71 115.598 137.37 115.598C138.144 115.598 139.199 115.386 140.536 114.964C141.872 114.542 142.646 114.331 142.857 114.331C143.574 114.331 143.933 114.641 143.933 115.26C143.933 116.09 143.124 116.92 141.506 117.75C139.888 118.58 138.2 118.995 136.441 118.995Z" fill="white"/>
</svg>
