<svg xmlns="http://www.w3.org/2000/svg" width="21" height="17" viewBox="0 0 21 17" fill="none">
<path d="M18.25 0.675781H2.25C1.15 0.675781 0.26 1.57578 0.26 2.67578L0.25 14.6758C0.25 15.7758 1.15 16.6758 2.25 16.6758H18.25C19.35 16.6758 20.25 15.7758 20.25 14.6758V2.67578C20.25 1.57578 19.35 0.675781 18.25 0.675781ZM17.85 4.92578L10.78 9.34578C10.46 9.54578 10.04 9.54578 9.72 9.34578L2.65 4.92578C2.54973 4.86949 2.46192 4.79344 2.39189 4.70224C2.32186 4.61103 2.27106 4.50656 2.24258 4.39515C2.21409 4.28375 2.2085 4.16772 2.22616 4.05409C2.24381 3.94046 2.28434 3.83159 2.34528 3.73408C2.40623 3.63657 2.48632 3.55244 2.58073 3.48678C2.67513 3.42112 2.78187 3.37529 2.8945 3.35208C3.00712 3.32887 3.12328 3.32875 3.23595 3.35173C3.34863 3.37471 3.45546 3.42031 3.55 3.48578L10.25 7.67578L16.95 3.48578C17.0445 3.42031 17.1514 3.37471 17.264 3.35173C17.3767 3.32875 17.4929 3.32887 17.6055 3.35208C17.7181 3.37529 17.8249 3.42112 17.9193 3.48678C18.0137 3.55244 18.0938 3.63657 18.1547 3.73408C18.2157 3.83159 18.2562 3.94046 18.2738 4.05409C18.2915 4.16772 18.2859 4.28375 18.2574 4.39515C18.2289 4.50656 18.1781 4.61103 18.1081 4.70224C18.0381 4.79344 17.9503 4.86949 17.85 4.92578Z" fill="white"/>
</svg>