<svg width="30" height="31" viewBox="0 0 30 31" fill="none" xmlns="http://www.w3.org/2000/svg">
<path id="Vector" d="M24.375 0.895508C25.9245 0.895508 27.2493 1.44564 28.3496 2.5459C29.4499 3.64616 30 4.97103 30 6.52051V25.2705C30 26.82 29.4499 28.1449 28.3496 29.2451C27.2493 30.3454 25.9245 30.8955 24.375 30.8955H20.7031V19.2744H24.5898L25.1758 14.7432H20.7031V11.8525C20.7031 11.1234 20.8561 10.5765 21.1621 10.2119C21.4681 9.84733 22.0638 9.66504 22.9492 9.66504L25.332 9.64551V5.60254C24.5117 5.48535 23.3529 5.42676 21.8555 5.42676C20.0846 5.42676 18.6686 5.94759 17.6074 6.98926C16.5462 8.03092 16.0156 9.50228 16.0156 11.4033V14.7432H12.1094V19.2744H16.0156V30.8955H5.625C4.07552 30.8955 2.75065 30.3454 1.65039 29.2451C0.55013 28.1449 0 26.82 0 25.2705V6.52051C0 4.97103 0.55013 3.64616 1.65039 2.5459C2.75065 1.44564 4.07552 0.895508 5.625 0.895508H24.375Z" fill="white"/>
</svg>
