<svg xmlns="http://www.w3.org/2000/svg" width="29" height="30" viewBox="0 0 29 30" fill="none">
<circle cx="14.5" cy="15.1758" r="14.5" fill="white"/>
<path d="M13.4301 22.499V12.9114H15.5696V22.499H13.4301ZM14.4998 10.6383C14.0838 10.6383 13.7347 10.5045 13.4524 10.2371C13.185 9.96968 13.0513 9.64282 13.0513 9.25654C13.0513 8.8554 13.185 8.52111 13.4524 8.25368C13.7347 7.98625 14.0838 7.85254 14.4998 7.85254C14.9158 7.85254 15.2576 7.98625 15.525 8.25368C15.8073 8.50625 15.9484 8.82568 15.9484 9.21197C15.9484 9.61311 15.8147 9.95482 15.5473 10.2371C15.2798 10.5045 14.9307 10.6383 14.4998 10.6383Z" fill="#170812"/>
</svg>