<svg width="30" height="31" viewBox="0 0 30 31" fill="none" xmlns="http://www.w3.org/2000/svg">
<path id="Vector" d="M16.542 0.897353C17.6366 0.893153 18.7311 0.904154 19.8253 0.930352L20.1163 0.940852C20.4523 0.952852 20.7838 0.967851 21.1843 0.98585C22.7802 1.06085 23.8691 1.31284 24.8246 1.68333C25.8145 2.06431 26.6485 2.5803 27.4825 3.41427C28.245 4.16365 28.8351 5.07013 29.2119 6.07068C29.5823 7.02614 29.8343 8.11661 29.9093 9.71255C29.9273 10.1115 29.9423 10.4445 29.9543 10.7805L29.9633 11.0715C29.99 12.1653 30.0015 13.2593 29.9978 14.3534L29.9993 15.4724V17.4373C30.003 18.5319 29.9915 19.6264 29.9648 20.7207L29.9558 21.0117C29.9438 21.3477 29.9288 21.6791 29.9108 22.0796C29.8358 23.6756 29.5808 24.7645 29.2119 25.72C28.8364 26.7216 28.2461 27.6288 27.4825 28.3779C26.7324 29.1404 25.8255 29.7305 24.8246 30.1074C23.8691 30.4778 22.7802 30.7298 21.1843 30.8048C20.7838 30.8228 20.4523 30.8378 20.1163 30.8498L19.8253 30.8588C18.7311 30.8855 17.6366 30.897 16.542 30.8933L15.4231 30.8948H13.4597C12.3651 30.8985 11.2706 30.887 10.1763 30.8603L9.88536 30.8513C9.52929 30.8384 9.1733 30.8234 8.81741 30.8063C7.22149 30.7313 6.13255 30.4763 5.1756 30.1074C4.17468 29.7314 3.26805 29.1411 2.51924 28.3779C1.75584 27.6284 1.16514 26.7213 0.788325 25.72C0.417844 24.7645 0.165857 23.6756 0.0908607 22.0796C0.074156 21.7237 0.0591566 21.3677 0.0458631 21.0117L0.0383637 20.7207C0.0107105 19.6264 -0.00179023 18.5319 0.000865457 17.4373V14.3534C-0.00332078 13.2593 0.00767983 12.1653 0.0338639 11.0715L0.0443633 10.7805C0.0563627 10.4445 0.0713619 10.1115 0.0893609 9.71255C0.164357 8.11511 0.416344 7.02764 0.786825 6.07068C1.16386 5.06964 1.75572 4.16341 2.52074 3.41577C3.26904 2.65192 4.17509 2.06067 5.1756 1.68333C6.13255 1.31284 7.21999 1.06085 8.81741 0.98585L9.88536 0.940852L10.1763 0.933352C11.2701 0.905713 12.3641 0.893212 13.4582 0.895854L16.542 0.897353ZM15.0001 8.3971C14.0064 8.38304 13.0198 8.56663 12.0977 8.93718C11.1756 9.30773 10.3363 9.85787 9.62864 10.5556C8.92097 11.2533 8.35904 12.0848 7.97549 13.0016C7.59194 13.9184 7.39442 14.9023 7.39442 15.8961C7.39442 16.8899 7.59194 17.8738 7.97549 18.7906C8.35904 19.7074 8.92097 20.5388 9.62864 21.2366C10.3363 21.9343 11.1756 22.4845 12.0977 22.855C13.0198 23.2256 14.0064 23.4091 15.0001 23.3951C16.9891 23.3951 18.8967 22.6049 20.3031 21.1985C21.7096 19.792 22.4997 17.8844 22.4997 15.8953C22.4997 13.9063 21.7096 11.9987 20.3031 10.5922C18.8967 9.18575 16.9891 8.3971 15.0001 8.3971ZM15.0001 11.397C15.5978 11.386 16.1918 11.4942 16.7472 11.7153C17.3026 11.9364 17.8085 12.266 18.2351 12.6848C18.6617 13.1036 19.0007 13.6032 19.232 14.1544C19.4634 14.7057 19.5827 15.2975 19.5828 15.8953C19.5829 16.4932 19.4638 17.085 19.2326 17.6364C19.0014 18.1877 18.6627 18.6874 18.2362 19.1063C17.8097 19.5253 17.304 19.855 16.7486 20.0763C16.1932 20.2976 15.5993 20.406 15.0016 20.3952C13.8082 20.3952 12.6636 19.9211 11.8198 19.0772C10.9759 18.2333 10.5018 17.0888 10.5018 15.8953C10.5018 14.7019 10.9759 13.5574 11.8198 12.7135C12.6636 11.8696 13.8082 11.3955 15.0016 11.3955L15.0001 11.397ZM22.8747 6.14717C22.3908 6.16654 21.9332 6.37239 21.5977 6.72161C21.2621 7.07083 21.0748 7.53633 21.0748 8.02061C21.0748 8.50489 21.2621 8.97039 21.5977 9.31961C21.9332 9.66883 22.3908 9.87468 22.8747 9.89405C23.3719 9.89405 23.8488 9.69651 24.2005 9.34489C24.5521 8.99327 24.7496 8.51638 24.7496 8.01911C24.7496 7.52185 24.5521 7.04495 24.2005 6.69333C23.8488 6.34171 23.3719 6.14418 22.8747 6.14418V6.14717Z" fill="white"/>
</svg>
