<svg width="30" height="31" viewBox="0 0 30 31" fill="none" xmlns="http://www.w3.org/2000/svg">
<path id="Vector" d="M26.6667 0.895508C27.5507 0.895508 28.3986 1.2467 29.0237 1.87182C29.6488 2.49694 30 3.34479 30 4.22884V27.5622C30 28.4462 29.6488 29.2941 29.0237 29.9192C28.3986 30.5443 27.5507 30.8955 26.6667 30.8955H3.33333C2.44928 30.8955 1.60143 30.5443 0.976311 29.9192C0.351189 29.2941 0 28.4462 0 27.5622V4.22884C0 3.34479 0.351189 2.49694 0.976311 1.87182C1.60143 1.2467 2.44928 0.895508 3.33333 0.895508H26.6667ZM25.8333 26.7288V17.8955C25.8333 16.4545 25.2609 15.0725 24.2419 14.0536C23.223 13.0346 21.841 12.4622 20.4 12.4622C18.9833 12.4622 17.3333 13.3288 16.5333 14.6288V12.7788H11.8833V26.7288H16.5333V18.5122C16.5333 17.2288 17.5667 16.1788 18.85 16.1788C19.4688 16.1788 20.0623 16.4247 20.4999 16.8623C20.9375 17.2998 21.1833 17.8933 21.1833 18.5122V26.7288H25.8333ZM6.46667 10.1622C7.20927 10.1622 7.92146 9.86718 8.44657 9.34207C8.97167 8.81697 9.26667 8.10478 9.26667 7.36217C9.26667 5.81217 8.01667 4.54551 6.46667 4.54551C5.71964 4.54551 5.00321 4.84226 4.47498 5.37049C3.94675 5.89872 3.65 6.61515 3.65 7.36217C3.65 8.91217 4.91667 10.1622 6.46667 10.1622ZM8.78333 26.7288V12.7788H4.16667V26.7288H8.78333Z" fill="white"/>
</svg>
