<svg xmlns="http://www.w3.org/2000/svg" width="50" height="51" viewBox="0 0 50 51" fill="none">
<circle cx="25" cy="25.6758" r="25" fill="#1FA1FF"/>
<path d="M17.8212 31.8195C18.4675 32.4715 19.2362 32.9894 20.0832 33.3435C20.9302 33.6976 21.8388 33.8809 22.7568 33.883C23.6749 33.885 24.5843 33.7056 25.4328 33.3552C26.2813 33.0049 27.0523 32.4903 27.7014 31.8412C28.3506 31.192 28.8651 30.4211 29.2155 29.5725C29.5659 28.724 29.7452 27.8146 29.7432 26.8966C29.7412 25.9785 29.5579 25.0699 29.2038 24.223C28.8497 23.376 28.3318 22.6073 27.6798 21.961C26.3705 20.6631 24.6004 19.9367 22.7568 19.9407C20.9133 19.9447 19.1464 20.6789 17.8428 21.9825C16.5392 23.2861 15.805 25.053 15.801 26.8966C15.7969 28.7401 16.5233 30.5102 17.8212 31.8195ZM28.5958 19.0735L32.1553 15.514H30.0402C29.6705 15.514 29.3158 15.3672 29.0544 15.1057C28.7929 14.8442 28.646 14.4896 28.646 14.1198C28.646 13.75 28.7929 13.3954 29.0544 13.134C29.3158 12.8725 29.6705 12.7256 30.0402 12.7256H35.6171C35.8004 12.725 35.9819 12.7607 36.1513 12.8306C36.3208 12.9005 36.4747 13.0031 36.6042 13.1327C36.7338 13.2623 36.8365 13.4162 36.9064 13.5856C36.9762 13.755 37.0119 13.9366 37.0114 14.1198V19.6967C37.0114 20.0665 36.8645 20.4211 36.603 20.6826C36.3415 20.9441 35.9869 21.091 35.6171 21.091C35.2474 21.091 34.8927 20.9441 34.6313 20.6826C34.3698 20.4211 34.2229 20.0665 34.2229 19.6967V17.3893L30.5673 21.0449C32.0348 23.022 32.7011 25.4806 32.4326 27.9281C32.1641 30.3756 30.9807 32.6313 29.1195 34.2432C27.2583 35.8551 24.8567 36.7042 22.3959 36.6203C19.9352 36.5364 17.597 35.5258 15.8498 33.791C14.104 32.0464 13.084 29.7052 12.9951 27.2388C12.9062 24.7723 13.7551 22.3638 15.3709 20.4982C16.9866 18.6325 19.2492 17.4483 21.7031 17.184C24.1569 16.9196 26.6198 17.5948 28.5958 19.0735Z" fill="white"/>
</svg>