<svg width="130" height="30" viewBox="0 0 130 30" fill="none" xmlns="http://www.w3.org/2000/svg">
<g id="image 1_layerstyle">
<g id="Group">
<g id="Vector">
<path d="M55.6485 1.87405C56.383 1.57505 57.1175 1.24887 57.2536 1.11296C57.4168 1.00424 58.1785 0.895508 58.9675 0.895508C60.2733 0.895508 60.4909 0.977053 61.1166 1.76533C61.8239 2.63515 61.8511 2.71669 61.6607 5.38052C61.5791 6.87552 61.4159 10.0014 61.171 16.5251L62.0144 17.6124C62.7217 18.5094 62.8849 18.9443 62.8577 20.0587C62.8577 20.8198 62.6673 21.6896 62.4496 22.043C62.232 22.3692 61.5791 22.7497 61.0078 22.9128C60.4637 23.0487 59.0763 23.1846 57.9609 23.1575C56.8455 23.1575 55.4853 23.0215 54.9684 22.8313C54.4515 22.641 53.8802 22.2061 53.6626 21.8255C53.4721 21.445 53.3361 20.5752 53.3905 19.8685C53.4449 18.9171 53.6626 18.4006 55.1044 16.9056L55.186 12.2303C55.2404 9.64807 55.2132 7.31043 55.1316 7.01143C55.05 6.63088 54.6691 6.41343 53.9074 6.27752C53.2817 6.14161 52.7376 5.86979 52.656 5.65233C52.5744 5.43488 52.52 4.97279 52.52 4.64661C52.5472 4.29324 52.928 3.64088 53.4177 3.20597C53.9074 2.74387 54.8868 2.14587 55.6485 1.87405Z" fill="white"/>
<path d="M8.99263 7.52788C9.34629 7.01143 10.0808 6.33188 10.6249 6.06006C11.2234 5.73388 12.1484 5.54361 13.0733 5.54361C13.9439 5.54361 15.032 5.73388 15.6578 6.0057C16.2563 6.27752 17.1812 7.01143 17.6981 7.60943C18.215 8.20743 18.8951 9.40343 19.1671 10.3004C19.548 11.4149 19.684 12.6381 19.684 14.3505C19.684 16.2533 19.5208 17.1774 19.0311 18.4278C18.7047 19.3248 17.9701 20.5208 17.4533 21.0916C16.882 21.6896 15.957 22.2876 15.2497 22.5323C14.5696 22.7497 13.3454 22.9128 12.5292 22.9128C11.5499 22.9128 10.7337 22.7225 10.1624 22.3692C9.67274 22.0702 9.07424 21.8799 8.85661 21.9615C8.61176 22.043 8.44854 22.4235 8.44854 22.9128C8.44854 23.5652 8.66617 23.8642 9.45511 24.3535C9.9992 24.6796 10.5433 25.2233 10.6793 25.5766C10.7881 25.9028 10.8969 26.5824 10.8969 27.0716C10.8969 27.6425 10.6521 28.1861 10.1352 28.7026C9.45511 29.3821 9.23747 29.4365 7.22433 29.4365C5.72808 29.4365 4.58548 29.2734 3.55171 28.8928C2.73557 28.5938 1.83782 28.1317 1.56578 27.8599C1.23932 27.5337 1.07609 26.9901 1.1033 26.0387C1.1033 24.8699 1.23932 24.5165 3.00762 22.5051V17.4221C3.00762 12.5837 2.98041 12.2847 2.46353 12.0401C2.16428 11.9042 1.7018 11.7683 1.45696 11.7683C1.18491 11.7954 0.722433 11.5236 0.423182 11.2246C-0.0120909 10.7625 -0.0937047 10.4635 0.0967274 9.64807C0.205546 9.10443 0.477592 8.37052 0.695228 8.04434C0.912865 7.69097 1.56578 7.09297 2.10987 6.68524C2.78998 6.16879 3.52451 5.89697 4.47667 5.81543C5.40162 5.73388 6.08174 5.81543 6.54421 6.11443C6.97949 6.35906 7.30594 6.87552 7.44197 7.5007C7.55078 8.04434 7.79563 8.50643 7.98606 8.50643C8.14929 8.50643 8.61176 8.07152 8.99263 7.52788Z" fill="white"/>
</g>
<path id="Vector_2" d="M118.274 2.52642C118.546 2.14587 119.008 1.62942 119.307 1.38478C119.607 1.11296 120.314 0.895508 120.94 0.895508C121.892 0.895508 122.245 1.08578 125.183 3.7496L125.918 3.01569C126.326 2.60797 127.033 2.14587 127.469 2.00996C128.013 1.84687 128.502 1.87405 128.965 2.06433C129.373 2.28178 129.727 2.74387 129.89 3.34188C130.053 3.97612 130.035 4.74627 129.835 5.65233C129.672 6.41343 128.992 7.7997 128.366 8.75107C127.714 9.72961 126.625 10.98 125.918 11.5508C125.129 12.1488 124.204 12.6381 123.606 12.7468C122.925 12.8283 122.381 12.7468 122.028 12.5022C121.728 12.3119 120.668 10.4907 119.661 8.47925C118.627 6.44061 117.811 4.48351 117.811 4.02142C117.811 3.55933 118.029 2.90697 118.274 2.52642Z" fill="#EA534A"/>
<g id="Vector_3">
<path d="M41.1485 6.49497C42.2367 5.89697 43.6785 5.13588 44.3586 4.78252C45.202 4.34761 45.9093 4.15733 46.671 4.2117C47.6776 4.29324 47.7592 4.34761 47.8952 5.27179C47.9768 5.81543 48.14 6.38625 48.2489 6.49497C48.3849 6.63088 49.2282 6.84834 50.1532 7.01143C51.5678 7.22888 51.8399 7.39198 51.9759 7.90843C52.0575 8.2618 52.0575 9.32189 51.9759 10.2733C51.8943 11.2246 51.6766 12.176 51.4862 12.3663C51.2686 12.5837 50.4252 12.7196 47.4871 12.7468L47.4055 14.6224C47.3783 15.6824 47.4599 16.7154 47.6232 16.9328C47.8136 17.2318 48.3849 17.3405 51.8399 17.3405L51.9215 18.4278C51.9759 19.0258 51.8127 20.0315 51.595 20.6567C51.2958 21.445 50.8333 22.043 50.1532 22.4779C49.5819 22.8313 48.5753 23.2118 47.8952 23.2934C47.2151 23.4021 45.9909 23.3205 45.1747 23.1575C44.2226 22.94 43.352 22.5051 42.7535 21.9886C42.2367 21.5265 41.5837 20.6024 41.2845 19.9228C40.822 18.8355 40.7676 18.3191 41.0941 12.0401L40.3595 11.877C39.9243 11.7954 39.4346 11.6595 39.2714 11.6052C39.0809 11.5508 38.8905 10.98 38.8361 10.3276C38.7817 9.70243 38.8361 8.80543 38.9449 8.37052C39.1081 7.71816 39.5434 7.33761 41.1485 6.49497Z" fill="white"/>
<path d="M66.6664 7.33761C67.2377 6.87552 68.3259 6.25034 69.0332 6.0057C69.7405 5.76106 71.1823 5.54361 72.2433 5.54361C73.3043 5.51643 74.7461 5.67952 75.5079 5.89697C76.2424 6.11443 77.4122 6.71243 78.0923 7.2017C78.8812 7.7997 79.6158 8.6967 80.1326 9.72962C80.8944 11.2246 80.9488 11.4964 80.9488 14.5952C80.9488 17.6124 80.8944 17.9929 80.2415 19.2433C79.8606 19.9772 79.0445 21.0373 78.446 21.5537C77.8475 22.0702 76.7049 22.7225 75.8887 22.9944C75.0454 23.2662 73.6035 23.4565 72.5154 23.4565C71.4544 23.4565 69.9853 23.2934 69.2508 23.0759C68.4891 22.8585 67.4009 22.3148 66.8024 21.8799C66.2039 21.445 65.3878 20.4936 64.9797 19.7597C64.5444 18.9714 64.1091 17.5852 63.9459 16.3892C63.7011 14.8398 63.7011 13.9156 63.9459 12.5837C64.1091 11.6052 64.5716 10.2461 64.9253 9.51216C65.2789 8.80543 66.0679 7.82689 66.6664 7.33761Z" fill="white"/>
<path d="M103.556 7.47352C104.29 6.84834 105.378 6.14161 105.977 5.92415C106.576 5.73388 108.017 5.54361 109.16 5.54361C110.629 5.51643 111.717 5.67952 112.697 6.03288C113.594 6.35906 114.519 6.98425 115.145 7.66379C115.798 8.34334 116.342 9.32189 116.587 10.1917C116.804 10.98 116.995 12.3119 116.995 13.1273C116.995 13.9972 116.832 14.8398 116.614 15.166C116.26 15.6824 115.879 15.7096 111.445 15.764C106.657 15.8455 106.657 15.8455 106.712 16.4435C106.766 16.8241 107.12 17.2318 107.609 17.4764C108.208 17.7754 109.35 17.8842 111.962 17.8842C113.894 17.8842 115.662 17.9929 115.879 18.156C116.152 18.3463 116.206 18.7268 116.097 19.5151C115.988 20.1675 115.607 20.9014 115.172 21.3635C114.737 21.7984 113.921 22.4235 113.322 22.7225C112.397 23.239 111.799 23.3205 109.242 23.3205C106.548 23.3205 106.113 23.239 104.889 22.6138C104.127 22.2061 103.121 21.445 102.631 20.9014C102.168 20.3577 101.597 19.5966 101.379 19.1617C101.162 18.754 100.835 17.6395 100.645 16.661C100.373 15.2475 100.346 14.5136 100.618 13.0458C100.808 12.0401 101.243 10.6538 101.597 9.91989C101.951 9.21316 102.821 8.12589 103.556 7.47352Z" fill="white"/>
<path d="M23.7919 8.07152C24.6353 7.25607 25.6691 6.52216 26.4036 6.27752C27.0837 6.03288 28.5527 5.81543 29.6681 5.81543C30.7835 5.78825 32.2526 5.95134 32.9327 6.14161C33.6128 6.33188 34.6194 6.84834 35.1907 7.28325C35.8164 7.77252 36.5237 8.6967 36.959 9.59371C37.5031 10.7625 37.6663 11.5236 37.6663 13.0458C37.6935 14.568 37.5847 15.1116 37.2038 15.4922C36.7957 15.8999 36.0612 16.0086 32.0349 16.1174C28.2807 16.2261 27.3557 16.3348 27.3557 16.6338C27.3557 16.8513 27.7094 17.259 28.1175 17.5852C28.8248 18.1016 29.2601 18.156 32.6878 18.156C35.762 18.156 36.5237 18.2375 36.7413 18.5637C36.8773 18.7812 37.0134 19.1345 37.0134 19.2976C37.0134 19.4879 36.7685 20.1403 36.4693 20.7383C36.1428 21.3635 35.4627 22.1245 34.837 22.5051C34.2385 22.8856 33.1775 23.3205 32.443 23.4836C31.7357 23.6739 30.2394 23.7555 29.124 23.6739C27.8182 23.6195 26.6484 23.3477 25.8595 22.9672C25.1794 22.6682 24.1728 21.9343 23.6015 21.3635C23.0302 20.7926 22.2957 19.7869 21.9692 19.1074C21.534 18.2375 21.3435 17.2318 21.2619 15.5737C21.1803 13.6982 21.2891 12.9099 21.7788 11.3605C22.2957 9.86553 22.7038 9.1588 23.7919 8.07152Z" fill="white"/>
<path d="M82.3634 6.92988C82.6899 6.52216 83.2884 6.22316 84.2133 6.08725C84.9479 5.95134 86.1177 5.84261 86.7978 5.84261C87.4779 5.81543 88.5661 5.92415 89.2462 6.06006C90.0079 6.19597 90.6608 6.52216 90.9601 6.92988C91.2321 7.28325 91.4497 7.98998 91.4225 8.50643C91.4225 9.02289 91.1505 9.89271 90.2527 11.3605L90.9873 14.3505C91.3953 15.9814 91.7762 17.3677 91.8578 17.3949C91.9122 17.4493 92.0755 17.4221 92.2387 17.3405C92.4019 17.259 92.81 16.2261 93.1908 15.0301C93.5717 13.8341 93.871 12.5293 93.871 12.0944C93.871 11.6867 93.6261 10.9528 93.3269 10.4635C92.946 9.86552 92.81 9.21316 92.8372 8.34334C92.8916 7.33761 93.082 6.95707 93.5989 6.54934C94.143 6.14161 94.7959 6.0057 96.673 5.97852C98.9582 5.92415 99.1214 5.95134 99.6111 6.6037C99.9376 7.01143 100.155 7.69098 100.155 8.37052C100.155 9.07725 99.9104 9.83834 99.4207 10.5451C99.0126 11.1431 97.8428 13.9428 96.8091 16.7969C95.7481 19.6238 94.6599 22.2061 94.3606 22.5051C93.9254 22.9672 93.4901 23.0487 91.0417 23.0487C89.0557 23.0487 88.022 22.94 87.5051 22.641C87.097 22.3964 86.5801 21.7168 86.2809 21.0101C86.0088 20.3305 85.1927 18.0201 84.4854 15.8455C83.7781 13.671 82.9075 11.4964 82.5538 11.0072C82.0914 10.382 81.9009 9.78398 81.9009 8.83261C81.8737 8.01716 82.037 7.33761 82.3634 6.92988Z" fill="white"/>
</g>
<g id="Vector_4">
<path d="M8.8293 14.4864C8.69328 12.9371 8.74769 12.6381 9.26458 11.9857C9.67265 11.4421 10.1079 11.2246 10.7064 11.2246C11.1961 11.1974 11.7946 11.4149 12.0394 11.6867C12.3115 11.9585 12.7196 12.8012 12.9372 13.5351C13.1548 14.2962 13.3453 15.1932 13.3453 15.5737C13.3725 15.9543 13.1276 16.5795 12.8012 17.0144C12.3387 17.6395 12.0939 17.7483 11.1145 17.6939C10.2711 17.6395 9.86308 17.4493 9.50942 16.9328C9.21017 16.5251 8.93812 15.5194 8.8293 14.4864Z" fill="#A4C213"/>
<path d="M107.092 9.94708C107.337 9.6209 107.908 9.21317 108.398 9.07726C108.861 8.94135 109.541 8.8598 109.922 8.94135C110.302 9.02289 110.928 9.43062 111.363 9.86553C111.853 10.4092 112.071 10.9256 112.044 11.4149C111.989 11.9042 111.717 12.2847 111.282 12.5022C110.874 12.7196 109.84 12.8284 106.793 12.7196L106.711 11.6324C106.684 10.9528 106.82 10.3276 107.092 9.94708Z" fill="#A4C213"/>
<path d="M27.6277 10.4092C27.8997 9.89271 28.3622 9.51217 28.9335 9.34908C29.396 9.21317 29.9673 9.07726 30.1577 9.07726C30.3209 9.05008 30.865 9.24035 31.3003 9.4578C31.7628 9.67526 32.3069 10.2733 32.5245 10.8169C32.7421 11.3334 32.851 11.9585 32.7421 12.176C32.6061 12.4206 32.1708 12.7196 31.7084 12.8827C31.2731 13.0186 30.1305 13.1274 29.2055 13.1274C27.9269 13.1274 27.4644 13.0186 27.3556 12.7196C27.274 12.5022 27.2196 12.0673 27.2196 11.7683C27.2196 11.4693 27.41 10.8713 27.6277 10.4092Z" fill="#A4C213"/>
<path d="M70.2029 12.2847C70.4205 11.7411 70.8286 11.1703 71.1278 11.0072C71.4543 10.8441 71.9167 10.7082 72.1888 10.7082C72.4336 10.681 72.9505 10.9528 73.3314 11.3062C73.7122 11.6324 74.2563 12.6109 74.5556 13.4807C74.8548 14.3234 75.0997 15.4106 75.0997 15.8455C75.0997 16.3076 74.9909 16.9056 74.8276 17.2046C74.6916 17.5036 74.2019 17.8842 73.7394 18.0201C73.3042 18.1832 72.7057 18.2104 72.4608 18.1288C72.1888 18.0201 71.6991 17.6939 71.3727 17.3677C70.9918 17.0415 70.5565 16.063 70.3117 15.0301C69.9036 13.5079 69.9036 13.1274 70.2029 12.2847Z" fill="#A4C213"/>
</g>
</g>
</g>
</svg>
