<svg xmlns="http://www.w3.org/2000/svg" width="12" height="8" viewBox="0 0 12 8" fill="none">
                    <path
                        d="M0.848633 3.17578C0.57249 3.17578 0.348633 3.39964 0.348633 3.67578C0.348633 3.95192 0.57249 4.17578 0.848633 4.17578L0.848633 3.17578ZM11.5044 4.02934C11.6997 3.83407 11.6997 3.51749 11.5044 3.32223L8.32245 0.140248C8.12719 -0.0550142 7.81061 -0.0550142 7.61535 0.140248C7.42008 0.33551 7.42008 0.652093 7.61535 0.847355L10.4438 3.67578L7.61535 6.50421C7.42008 6.69947 7.42008 7.01605 7.61535 7.21132C7.81061 7.40658 8.12719 7.40658 8.32245 7.21132L11.5044 4.02934ZM0.848633 4.17578L11.1509 4.17578L11.1509 3.17578L0.848633 3.17578L0.848633 4.17578Z"
                        fill="#A4C213" />
                </svg>