<svg width="19" height="16" viewBox="0 0 19 16" fill="none" xmlns="http://www.w3.org/2000/svg">
<path d="M1.23926 7C0.686973 7 0.239258 7.44772 0.239258 8C0.239258 8.55228 0.686973 9 1.23926 9V7ZM17.9464 8.70711C18.3369 8.31658 18.3369 7.68342 17.9464 7.29289L11.5824 0.928932C11.1919 0.538408 10.5587 0.538408 10.1682 0.928932C9.77767 1.31946 9.77767 1.95262 10.1682 2.34315L15.825 8L10.1682 13.6569C9.77767 14.0474 9.77767 14.6805 10.1682 15.0711C10.5587 15.4616 11.1919 15.4616 11.5824 15.0711L17.9464 8.70711ZM1.23926 9H17.2393V7H1.23926V9Z" fill="white"/>
</svg>
