<svg width="20" height="20" viewBox="0 0 17 17" fill="none" xmlns="http://www.w3.org/2000/svg">
<path id="Vector" d="M8.75001 0.675781C13.1684 0.675781 16.75 4.25738 16.75 8.67578C16.75 13.0942 13.1684 16.6758 8.75001 16.6758C7.33623 16.6781 5.94733 16.3039 4.72601 15.5918L0.753211 16.6758L1.83481 12.7014C1.12209 11.4797 0.747649 10.0902 0.750011 8.67578C0.750011 4.25738 4.33161 0.675781 8.75001 0.675781ZM6.02361 4.91578L5.86361 4.92218C5.76003 4.92849 5.65879 4.9557 5.56601 5.00218C5.47922 5.05132 5.40001 5.11276 5.33081 5.18458C5.23481 5.27498 5.18041 5.35338 5.12201 5.42938C4.82611 5.8141 4.66679 6.28643 4.66921 6.77178C4.67081 7.16378 4.77321 7.54538 4.93321 7.90218C5.26041 8.62378 5.79881 9.38778 6.50921 10.0958C6.68041 10.2662 6.84841 10.4374 7.02921 10.5966C7.91192 11.3737 8.96381 11.9342 10.1012 12.2334L10.5556 12.303C10.7036 12.311 10.8516 12.2998 11.0004 12.2926C11.2334 12.2805 11.4609 12.2175 11.6668 12.1078C11.7716 12.0538 11.8738 11.9951 11.9732 11.9318C11.9732 11.9318 12.0076 11.9094 12.0732 11.8598C12.1812 11.7798 12.2476 11.723 12.3372 11.6294C12.4036 11.5606 12.4612 11.4798 12.5052 11.3878C12.5676 11.2574 12.63 11.0086 12.6556 10.8014C12.6748 10.643 12.6692 10.5566 12.6668 10.503C12.6636 10.4174 12.5924 10.3286 12.5148 10.291L12.0492 10.0822C12.0492 10.0822 11.3532 9.77898 10.9276 9.58538C10.8831 9.56593 10.8353 9.55481 10.7868 9.55258C10.7321 9.54695 10.6768 9.55311 10.6246 9.57064C10.5724 9.58816 10.5246 9.61664 10.4844 9.65417C10.4804 9.65258 10.4268 9.69818 9.8484 10.399C9.81521 10.4436 9.76948 10.4773 9.71705 10.4958C9.66462 10.5143 9.60786 10.5168 9.554 10.503C9.50189 10.489 9.45083 10.4714 9.40121 10.4502C9.302 10.4086 9.26761 10.3926 9.1996 10.3638C8.74046 10.1634 8.31536 9.8927 7.93961 9.56138C7.83881 9.47338 7.74521 9.37738 7.64921 9.28458C7.33448 8.98316 7.06019 8.64218 6.83321 8.27018L6.78601 8.19418C6.75211 8.14311 6.72469 8.08802 6.70441 8.03018C6.67401 7.91258 6.75321 7.81818 6.75321 7.81818C6.75321 7.81818 6.94761 7.60538 7.03801 7.49018C7.12601 7.37818 7.20041 7.26938 7.24841 7.19178C7.34281 7.03978 7.37241 6.88378 7.32281 6.76298C7.09881 6.21578 6.86681 5.67098 6.62841 5.13018C6.58121 5.02298 6.44121 4.94618 6.31401 4.93098C6.27081 4.92618 6.22761 4.92138 6.18441 4.91818C6.07697 4.91284 5.96932 4.91391 5.86201 4.92138L6.02361 4.91578Z" fill="white"/>
</svg>
